<?xml version="1.0" encoding="utf-8"?>
<!-- Generated by IcoMoon.io -->
<!DOCTYPE svg PUBLIC "-//W3C//DTD SVG 1.1//EN" "http://www.w3.org/Graphics/SVG/1.1/DTD/svg11.dtd">
<svg version="1.1" xmlns="http://www.w3.org/2000/svg" xmlns:xlink="http://www.w3.org/1999/xlink" width="100" height="100" viewBox="0 0 100 100">
<g>
</g>
	<path d="M83.398 0h-66.797c-9.131 0-16.602 7.471-16.602 16.602v66.797c0 9.131 7.471 16.602 16.602 16.602h66.797c9.131 0 16.602-7.471 16.602-16.602v-66.797c0-9.131-7.471-16.602-16.602-16.602zM32.012 43.75h35.977c0.682 1.959 1.055 4.062 1.055 6.25 0 10.5-8.543 19.043-19.043 19.043-10.5 0-19.043-8.543-19.043-19.043 0-2.188 0.372-4.291 1.055-6.25zM87.5 43.755v37.495c0 3.438-2.813 6.25-6.25 6.25h-62.5c-3.437 0-6.25-2.813-6.25-6.25v-37.5h9.776c-0.453 2.012-0.694 4.103-0.694 6.25 0 15.67 12.748 28.418 28.418 28.418 15.67 0 28.418-12.748 28.418-28.418 0-2.147-0.241-4.238-0.694-6.25l9.776 0.005zM87.5 21.875c0 1.719-1.406 3.125-3.125 3.125h-6.25c-1.719 0-3.125-1.406-3.125-3.125v-6.25c0-1.719 1.406-3.125 3.125-3.125h6.25c1.719 0 3.125 1.406 3.125 3.125v6.25z"/>
</svg>
