<?xml version="1.0" encoding="utf-8"?>
<!-- Generated by IcoMoon.io -->
<!DOCTYPE svg PUBLIC "-//W3C//DTD SVG 1.1//EN" "http://www.w3.org/Graphics/SVG/1.1/DTD/svg11.dtd">
<svg version="1.1" xmlns="http://www.w3.org/2000/svg" xmlns:xlink="http://www.w3.org/1999/xlink" width="100" height="100" viewBox="0 0 100 100">
<g>
</g>
	<path d="M83.331 0h-66.662c-9.168 0-16.669 7.498-16.669 16.666v66.666c0 9.168 7.501 16.669 16.669 16.669h66.662c9.174 0 16.669-7.501 16.669-16.669v-66.666c0-9.167-7.495-16.666-16.669-16.666zM25 25h50c0.892 0 1.758 0.192 2.553 0.553l-27.553 32.145-27.553-32.146c0.795-0.361 1.661-0.553 2.553-0.553zM18.75 68.75v-37.5c0-0.131 0.005-0.261 0.014-0.391l18.327 21.381-18.125 18.125c-0.141-0.521-0.215-1.063-0.215-1.615zM75 75h-50c-0.552 0-1.094-0.074-1.615-0.215l17.785-17.785 8.83 10.302 8.83-10.302 17.785 17.785c-0.521 0.141-1.063 0.215-1.615 0.215zM81.25 68.75c0 0.552-0.074 1.094-0.215 1.615l-18.125-18.125 18.327-21.381c0.008 0.13 0.014 0.26 0.014 0.391v37.5z" fill="#000000" />
</svg>
