<?xml version="1.0" encoding="utf-8"?>
<!-- Generated by IcoMoon.io -->
<!DOCTYPE svg PUBLIC "-//W3C//DTD SVG 1.1//EN" "http://www.w3.org/Graphics/SVG/1.1/DTD/svg11.dtd">
<svg version="1.1" xmlns="http://www.w3.org/2000/svg" xmlns:xlink="http://www.w3.org/1999/xlink" width="100" height="100" viewBox="0 0 100 100">
<g>
</g>
	<path d="M50 0c-27.614 0-50 22.386-50 50s22.386 50 50 50 50-22.386 50-50-22.386-50-50-50zM68.75 25c3.452 0 6.25 2.798 6.25 6.25s-2.798 6.25-6.25 6.25-6.25-2.798-6.25-6.25 2.798-6.25 6.25-6.25zM31.25 25c3.452 0 6.25 2.798 6.25 6.25s-2.798 6.25-6.25 6.25-6.25-2.798-6.25-6.25 2.798-6.25 6.25-6.25zM50 81.25c-11.378 0-21.334-6.081-26.799-15.17l8.040-4.824c3.826 6.362 10.795 10.619 18.76 10.619s14.934-4.257 18.76-10.619l8.040 4.824c-5.465 9.089-15.421 15.17-26.799 15.17z" fill="#000000" />
</svg>
