<?xml version="1.0" encoding="utf-8"?>
<!-- Generated by IcoMoon.io -->
<!DOCTYPE svg PUBLIC "-//W3C//DTD SVG 1.1//EN" "http://www.w3.org/Graphics/SVG/1.1/DTD/svg11.dtd">
<svg version="1.1" xmlns="http://www.w3.org/2000/svg" xmlns:xlink="http://www.w3.org/1999/xlink" width="100" height="100" viewBox="0 0 100 100">
<g>
</g>
	<path d="M50 81.239c-1.871 0-3.741-0.968-5.678-2.905-0.763-0.763-0.763-1.999 0-2.762 0.763-0.763 1.999-0.763 2.762 0 1.192 1.192 2.146 1.772 2.916 1.772 0.77 0 1.724-0.579 2.916-1.772 0.763-0.762 1.999-0.762 2.762 0 0.763 0.763 0.763 1.999 0 2.762-1.937 1.937-3.808 2.905-5.678 2.905zM0 51.318c0 4.872 0.417 9.289 1.25 13.25 0.833 3.961 2.005 7.396 3.516 10.306 1.51 2.909 3.42 5.459 5.729 7.65 2.309 2.191 4.818 3.996 7.526 5.416 2.708 1.42 5.807 2.568 9.297 3.444 3.489 0.876 7.040 1.49 10.651 1.84 3.611 0.351 7.587 0.526 11.927 0.526 4.34 0 8.324-0.175 11.953-0.525 3.629-0.351 7.188-0.964 10.677-1.84 3.49-0.876 6.597-2.024 9.323-3.444 2.726-1.42 5.252-3.225 7.578-5.416 2.327-2.191 4.245-4.741 5.755-7.65 1.511-2.91 2.691-6.345 3.542-10.306 0.851-3.961 1.276-8.378 1.276-13.25 0-8.729-2.709-16.247-8.125-22.557 0.313-0.841 0.581-1.805 0.807-2.892 0.225-1.087 0.443-2.62 0.651-4.601 0.209-1.981 0.13-4.268-0.234-6.862-0.365-2.594-1.050-5.241-2.057-7.94l-0.781-0.158c-0.521-0.105-1.371-0.070-2.552 0.105-1.18 0.175-2.561 0.49-4.14 0.946-1.58 0.455-3.62 1.358-6.12 2.708-2.5 1.349-5.139 3.058-7.917 5.127-4.722-1.437-11.232-2.941-19.531-2.941-8.298 0-14.826 1.504-19.583 2.941-2.778-2.068-5.425-3.768-7.943-5.1-2.518-1.332-4.531-2.244-6.042-2.734-1.511-0.491-2.908-0.806-4.193-0.946-1.285-0.14-2.11-0.184-2.474-0.131-0.364 0.053-0.634 0.114-0.807 0.184-1.007 2.699-1.702 5.346-2.084 7.94-0.382 2.594-0.469 4.872-0.26 6.835 0.208 1.963 0.434 3.506 0.677 4.627 0.243 1.122 0.521 2.086 0.833 2.892-5.417 6.274-8.125 13.793-8.125 22.557zM13.334 62.442c0-5.666 2.083-10.804 6.25-15.416 1.25-1.407 2.7-2.472 4.349-3.195 1.649-0.723 3.524-1.133 5.625-1.231 2.101-0.098 4.106-0.078 6.016 0.059 1.91 0.137 4.271 0.322 7.083 0.557 2.812 0.235 5.243 0.352 7.292 0.352 2.048 0 4.479-0.117 7.291-0.352 2.813-0.234 5.174-0.42 7.084-0.557 1.91-0.137 3.915-0.156 6.016-0.059 2.101 0.098 3.985 0.508 5.651 1.231 1.667 0.723 3.125 1.788 4.375 3.195 4.166 4.611 6.25 9.749 6.25 15.416 0 3.321-0.347 6.282-1.042 8.88-0.694 2.599-1.571 4.777-2.63 6.535-1.059 1.759-2.544 3.244-4.453 4.455-1.91 1.212-3.759 2.149-5.547 2.813-1.788 0.664-4.097 1.182-6.927 1.553-2.83 0.371-5.365 0.596-7.605 0.674-2.24 0.078-5.061 0.117-8.463 0.117-3.403 0-6.215-0.039-8.438-0.117-2.222-0.078-4.748-0.303-7.578-0.674-2.83-0.371-5.139-0.889-6.927-1.553-1.788-0.664-3.637-1.602-5.547-2.813-1.91-1.211-3.394-2.696-4.453-4.455-1.059-1.758-1.936-3.937-2.63-6.535-0.694-2.599-1.042-5.559-1.042-8.88zM25 59.375c0-5.178 2.798-9.375 6.25-9.375s6.25 4.197 6.25 9.375c0 5.178-2.798 9.375-6.25 9.375-3.452 0-6.25-4.197-6.25-9.375zM62.5 59.375c0-5.178 2.798-9.375 6.25-9.375s6.25 4.197 6.25 9.375c0 5.178-2.798 9.375-6.25 9.375-3.452 0-6.25-4.197-6.25-9.375z" fill="#000000" />
</svg>
